<mxfile host="65bd71144e">
    <diagram id="ztxwMPKXc1onpVPh6lmF" name="Page-1">
        <mxGraphModel dx="2478" dy="2031" grid="1" gridSize="10" guides="1" tooltips="1" connect="1" arrows="1" fold="1" page="1" pageScale="1" pageWidth="850" pageHeight="1100" math="0" shadow="0">
            <root>
                <mxCell id="0"/>
                <mxCell id="1" parent="0"/>
                <mxCell id="2" style="edgeStyle=orthogonalEdgeStyle;html=1;exitX=0.5;exitY=1;exitDx=0;exitDy=0;entryX=0.5;entryY=0;entryDx=0;entryDy=0;" edge="1" parent="1" source="3" target="5">
                    <mxGeometry relative="1" as="geometry">
                        <mxPoint x="420" y="140" as="targetPoint"/>
                    </mxGeometry>
                </mxCell>
                <mxCell id="7" style="edgeStyle=orthogonalEdgeStyle;html=1;exitX=0.5;exitY=1;exitDx=0;exitDy=0;entryX=0.5;entryY=0;entryDx=0;entryDy=0;" edge="1" parent="1" source="3" target="4">
                    <mxGeometry relative="1" as="geometry"/>
                </mxCell>
                <mxCell id="8" style="edgeStyle=orthogonalEdgeStyle;html=1;exitX=0.5;exitY=1;exitDx=0;exitDy=0;entryX=0.5;entryY=0;entryDx=0;entryDy=0;" edge="1" parent="1" source="3" target="6">
                    <mxGeometry relative="1" as="geometry"/>
                </mxCell>
                <mxCell id="25" style="edgeStyle=orthogonalEdgeStyle;html=1;exitX=0.5;exitY=0;exitDx=0;exitDy=0;entryX=0.5;entryY=1;entryDx=0;entryDy=0;" edge="1" parent="1" source="3" target="15">
                    <mxGeometry relative="1" as="geometry"/>
                </mxCell>
                <mxCell id="3" value="Landing Page" style="whiteSpace=wrap;html=1;" vertex="1" parent="1">
                    <mxGeometry x="360" y="30" width="120" height="60" as="geometry"/>
                </mxCell>
                <mxCell id="9" style="edgeStyle=orthogonalEdgeStyle;html=1;exitX=0.5;exitY=1;exitDx=0;exitDy=0;entryX=0.5;entryY=0;entryDx=0;entryDy=0;" edge="1" parent="1" source="4" target="10">
                    <mxGeometry relative="1" as="geometry">
                        <mxPoint x="110" y="310" as="targetPoint"/>
                    </mxGeometry>
                </mxCell>
                <mxCell id="4" value="CTA&lt;br&gt;Resources" style="rhombus;whiteSpace=wrap;html=1;" vertex="1" parent="1">
                    <mxGeometry x="70" y="180" width="80" height="80" as="geometry"/>
                </mxCell>
                <mxCell id="13" style="edgeStyle=orthogonalEdgeStyle;html=1;exitX=0.5;exitY=1;exitDx=0;exitDy=0;entryX=0.5;entryY=0;entryDx=0;entryDy=0;" edge="1" parent="1" source="5" target="11">
                    <mxGeometry relative="1" as="geometry"/>
                </mxCell>
                <mxCell id="5" value="CTA&lt;br&gt;Mind-Set" style="rhombus;whiteSpace=wrap;html=1;" vertex="1" parent="1">
                    <mxGeometry x="380" y="180" width="80" height="80" as="geometry"/>
                </mxCell>
                <mxCell id="14" style="edgeStyle=orthogonalEdgeStyle;html=1;exitX=0.5;exitY=1;exitDx=0;exitDy=0;entryX=0.5;entryY=0;entryDx=0;entryDy=0;" edge="1" parent="1" source="6" target="12">
                    <mxGeometry relative="1" as="geometry"/>
                </mxCell>
                <mxCell id="6" value="CTA&lt;br&gt;Self-Care" style="rhombus;whiteSpace=wrap;html=1;" vertex="1" parent="1">
                    <mxGeometry x="760" y="180" width="80" height="80" as="geometry"/>
                </mxCell>
                <mxCell id="17" style="edgeStyle=orthogonalEdgeStyle;html=1;exitX=0.5;exitY=1;exitDx=0;exitDy=0;entryX=0.5;entryY=0;entryDx=0;entryDy=0;" edge="1" parent="1" source="10" target="19">
                    <mxGeometry relative="1" as="geometry">
                        <mxPoint x="110" y="420" as="targetPoint"/>
                    </mxGeometry>
                </mxCell>
                <mxCell id="21" style="edgeStyle=orthogonalEdgeStyle;html=1;exitX=0.5;exitY=1;exitDx=0;exitDy=0;entryX=0.5;entryY=0;entryDx=0;entryDy=0;" edge="1" parent="1" source="10" target="20">
                    <mxGeometry relative="1" as="geometry"/>
                </mxCell>
                <mxCell id="10" value="Resources Page" style="whiteSpace=wrap;html=1;" vertex="1" parent="1">
                    <mxGeometry x="50" y="300" width="120" height="60" as="geometry"/>
                </mxCell>
                <mxCell id="27" style="edgeStyle=orthogonalEdgeStyle;html=1;exitX=0.5;exitY=1;exitDx=0;exitDy=0;" edge="1" parent="1" source="11" target="26">
                    <mxGeometry relative="1" as="geometry">
                        <mxPoint x="420" y="450" as="targetPoint"/>
                    </mxGeometry>
                </mxCell>
                <mxCell id="11" value="Mindset Page" style="whiteSpace=wrap;html=1;" vertex="1" parent="1">
                    <mxGeometry x="360" y="300" width="120" height="60" as="geometry"/>
                </mxCell>
                <mxCell id="30" style="edgeStyle=orthogonalEdgeStyle;html=1;exitX=0.5;exitY=1;exitDx=0;exitDy=0;entryX=0.5;entryY=0;entryDx=0;entryDy=0;" edge="1" parent="1" source="12" target="32">
                    <mxGeometry relative="1" as="geometry">
                        <mxPoint x="750.2105263157896" y="410" as="targetPoint"/>
                    </mxGeometry>
                </mxCell>
                <mxCell id="35" style="edgeStyle=orthogonalEdgeStyle;html=1;exitX=0.5;exitY=1;exitDx=0;exitDy=0;" edge="1" parent="1" source="12" target="33">
                    <mxGeometry relative="1" as="geometry"/>
                </mxCell>
                <mxCell id="37" style="edgeStyle=orthogonalEdgeStyle;html=1;exitX=0.5;exitY=1;exitDx=0;exitDy=0;entryX=0.5;entryY=0;entryDx=0;entryDy=0;" edge="1" parent="1" source="12" target="31">
                    <mxGeometry relative="1" as="geometry"/>
                </mxCell>
                <mxCell id="12" value="Self-Care Page" style="whiteSpace=wrap;html=1;" vertex="1" parent="1">
                    <mxGeometry x="740" y="300" width="120" height="60" as="geometry"/>
                </mxCell>
                <mxCell id="15" value="Inspirational Quote" style="whiteSpace=wrap;html=1;" vertex="1" parent="1">
                    <mxGeometry x="360" y="-90" width="120" height="60" as="geometry"/>
                </mxCell>
                <mxCell id="18" value="Search Results" style="whiteSpace=wrap;html=1;" vertex="1" parent="1">
                    <mxGeometry y="530" width="120" height="60" as="geometry"/>
                </mxCell>
                <mxCell id="22" style="edgeStyle=orthogonalEdgeStyle;html=1;exitX=0.5;exitY=1;exitDx=0;exitDy=0;" edge="1" parent="1" source="19" target="18">
                    <mxGeometry relative="1" as="geometry"/>
                </mxCell>
                <mxCell id="19" value="CTA&lt;br&gt;Search" style="rhombus;whiteSpace=wrap;html=1;" vertex="1" parent="1">
                    <mxGeometry x="20" y="410" width="80" height="80" as="geometry"/>
                </mxCell>
                <mxCell id="20" value="CTA&lt;br&gt;Post" style="rhombus;whiteSpace=wrap;html=1;" vertex="1" parent="1">
                    <mxGeometry x="130" y="410" width="80" height="80" as="geometry"/>
                </mxCell>
                <mxCell id="29" style="edgeStyle=orthogonalEdgeStyle;html=1;exitX=0.5;exitY=1;exitDx=0;exitDy=0;entryX=0.5;entryY=0;entryDx=0;entryDy=0;" edge="1" parent="1" source="26" target="28">
                    <mxGeometry relative="1" as="geometry"/>
                </mxCell>
                <mxCell id="26" value="Inspirational pictures and quotes" style="whiteSpace=wrap;html=1;" vertex="1" parent="1">
                    <mxGeometry x="360" y="430" width="120" height="60" as="geometry"/>
                </mxCell>
                <mxCell id="28" value="Links to further reading" style="whiteSpace=wrap;html=1;" vertex="1" parent="1">
                    <mxGeometry x="360" y="530" width="120" height="60" as="geometry"/>
                </mxCell>
                <mxCell id="31" value="Links to resources" style="whiteSpace=wrap;html=1;" vertex="1" parent="1">
                    <mxGeometry x="740" y="410" width="120" height="60" as="geometry"/>
                </mxCell>
                <mxCell id="32" value="CTA Use&amp;nbsp;Timer" style="rhombus;whiteSpace=wrap;html=1;" vertex="1" parent="1">
                    <mxGeometry x="590" y="400" width="80" height="80" as="geometry"/>
                </mxCell>
                <mxCell id="33" value="CTA Squat Counter" style="rhombus;whiteSpace=wrap;html=1;" vertex="1" parent="1">
                    <mxGeometry x="910" y="400" width="80" height="80" as="geometry"/>
                </mxCell>
            </root>
        </mxGraphModel>
    </diagram>
</mxfile>